<svg xmlns="http://www.w3.org/2000/svg" viewBox="0 0 1087.40 484.87">
  <style>
    .key-bg { fill: #f5f5f5; stroke: #d4d4d4; stroke-width: 1; }
    .key-index { fill: #171717; font-family: ui-monospace, SFMono-Regular, "SF Mono", Menlo, Consolas, "Liberation Mono", monospace; font-weight: 700; text-anchor: middle; dominant-baseline: central; }
    .key-part { font-family: system-ui, -apple-system, BlinkMacSystemFont, "Segoe UI", Roboto, sans-serif; text-anchor: middle; dominant-baseline: central; }
    @media (prefers-color-scheme: dark) {
      .key-bg { fill: #2a2a2a; stroke: #404040; }
      .key-index { fill: #e5e5e5; }
    }
  </style>
  <g>
    <path class="key-bg" d="M 109.83,23.01 L 166.95,33.08 Q 170.89,33.78 170.19,37.72 L 160.12,94.84 Q 159.43,98.78 155.49,98.08 L 98.37,88.01 Q 94.43,87.31 95.13,83.37 L 105.20,26.26 Q 105.89,22.32 109.83,23.01 Z" />
    <path class="key-bg" d="M 180.53,35.47 L 237.65,45.54 Q 241.59,46.24 240.89,50.18 L 230.82,107.30 Q 230.13,111.24 226.19,110.54 L 169.07,100.47 Q 165.13,99.77 165.83,95.83 L 175.90,38.72 Q 176.59,34.78 180.53,35.47 Z" />
    <path class="key-bg" d="M 251.30,48.00 L 308.42,58.07 Q 312.36,58.77 311.66,62.71 L 301.59,119.83 Q 300.90,123.77 296.96,123.07 L 239.84,113.00 Q 235.90,112.30 236.60,108.36 L 246.67,51.25 Q 247.36,47.31 251.30,48.00 Z" />
    <path class="key-bg" d="M 322.07,60.46 L 379.19,70.53 Q 383.13,71.23 382.43,75.17 L 372.36,132.29 Q 371.67,136.23 367.73,135.53 L 310.61,125.46 Q 306.67,124.76 307.37,120.82 L 317.44,63.71 Q 318.13,59.77 322.07,60.46 Z" />
    <path class="key-bg" d="M 392.84,72.92 L 449.96,82.99 Q 453.90,83.69 453.20,87.63 L 443.13,144.75 Q 442.44,148.69 438.50,147.99 L 381.38,137.92 Q 377.44,137.22 378.14,133.28 L 388.21,76.17 Q 388.90,72.23 392.84,72.92 Z" />
    <path class="key-bg" d="M 463.54,85.38 L 520.66,95.45 Q 524.60,96.15 523.90,100.09 L 513.83,157.21 Q 513.14,161.15 509.20,160.45 L 452.08,150.38 Q 448.14,149.68 448.84,145.74 L 458.91,88.63 Q 459.60,84.69 463.54,85.38 Z" />
    <path class="key-bg" d="M 566.74,95.45 L 623.86,85.38 Q 627.80,84.69 628.49,88.63 L 638.56,145.74 Q 639.26,149.68 635.32,150.38 L 578.20,160.45 Q 574.26,161.15 573.57,157.21 L 563.50,100.09 Q 562.80,96.15 566.74,95.45 Z" />
    <path class="key-bg" d="M 637.51,82.99 L 694.63,72.92 Q 698.57,72.23 699.26,76.17 L 709.33,133.28 Q 710.03,137.22 706.09,137.92 L 648.97,147.99 Q 645.03,148.69 644.34,144.75 L 634.27,87.63 Q 633.57,83.69 637.51,82.99 Z" />
    <path class="key-bg" d="M 708.21,70.53 L 765.33,60.46 Q 769.27,59.77 769.96,63.71 L 780.03,120.82 Q 780.73,124.76 776.79,125.46 L 719.67,135.53 Q 715.73,136.23 715.04,132.29 L 704.97,75.17 Q 704.27,71.23 708.21,70.53 Z" />
    <path class="key-bg" d="M 778.98,58.07 L 836.10,48.00 Q 840.04,47.31 840.73,51.25 L 850.80,108.36 Q 851.50,112.30 847.56,113.00 L 790.44,123.07 Q 786.50,123.77 785.81,119.83 L 775.74,62.71 Q 775.04,58.77 778.98,58.07 Z" />
    <path class="key-bg" d="M 849.75,45.54 L 906.87,35.47 Q 910.81,34.78 911.50,38.72 L 921.57,95.83 Q 922.27,99.77 918.33,100.47 L 861.21,110.54 Q 857.27,111.24 856.58,107.30 L 846.51,50.18 Q 845.81,46.24 849.75,45.54 Z" />
    <path class="key-bg" d="M 920.45,33.08 L 977.57,23.01 Q 981.51,22.32 982.20,26.26 L 992.27,83.37 Q 992.97,87.31 989.03,88.01 L 931.91,98.08 Q 927.97,98.78 927.28,94.84 L 917.21,37.72 Q 916.51,33.78 920.45,33.08 Z" />
    <path class="key-bg" d="M 62.71,87.66 L 154.29,103.81 Q 158.23,104.51 157.54,108.45 L 147.47,165.56 Q 146.77,169.50 142.83,168.81 L 51.25,152.66 Q 47.31,151.97 48.00,148.03 L 58.07,90.91 Q 58.77,86.97 62.71,87.66 Z" />
    <path class="key-bg" d="M 168.07,106.24 L 225.19,116.31 Q 229.13,117.01 228.43,120.95 L 218.36,178.07 Q 217.67,182.01 213.73,181.31 L 156.61,171.24 Q 152.67,170.54 153.37,166.60 L 163.44,109.49 Q 164.13,105.55 168.07,106.24 Z" />
    <path class="key-bg" d="M 238.84,118.70 L 295.96,128.77 Q 299.90,129.47 299.20,133.41 L 289.13,190.53 Q 288.44,194.47 284.50,193.77 L 227.38,183.70 Q 223.44,183.00 224.14,179.06 L 234.21,121.95 Q 234.90,118.01 238.84,118.70 Z" />
    <path class="key-bg" d="M 309.61,131.23 L 366.73,141.30 Q 370.67,142.00 369.97,145.94 L 359.90,203.06 Q 359.21,207.00 355.27,206.30 L 298.15,196.23 Q 294.21,195.53 294.91,191.59 L 304.98,134.48 Q 305.67,130.54 309.61,131.23 Z" />
    <path class="key-bg" d="M 380.31,143.69 L 437.43,153.76 Q 441.37,154.46 440.67,158.40 L 430.60,215.52 Q 429.91,219.46 425.97,218.76 L 368.85,208.69 Q 364.91,207.99 365.61,204.05 L 375.68,146.94 Q 376.37,143.00 380.31,143.69 Z" />
    <path class="key-bg" d="M 451.08,156.15 L 508.20,166.22 Q 512.14,166.92 511.44,170.86 L 501.37,227.98 Q 500.68,231.92 496.74,231.22 L 439.62,221.15 Q 435.68,220.45 436.38,216.51 L 446.45,159.40 Q 447.14,155.46 451.08,156.15 Z" />
    <path class="key-bg" d="M 579.20,166.22 L 636.32,156.15 Q 640.26,155.46 640.95,159.40 L 651.02,216.51 Q 651.72,220.45 647.78,221.15 L 590.66,231.22 Q 586.72,231.92 586.03,227.98 L 575.96,170.86 Q 575.26,166.92 579.20,166.22 Z" />
    <path class="key-bg" d="M 649.97,153.76 L 707.09,143.69 Q 711.03,143.00 711.72,146.94 L 721.79,204.05 Q 722.49,207.99 718.55,208.69 L 661.43,218.76 Q 657.49,219.46 656.80,215.52 L 646.73,158.40 Q 646.03,154.46 649.97,153.76 Z" />
    <path class="key-bg" d="M 720.67,141.30 L 777.79,131.23 Q 781.73,130.54 782.42,134.48 L 792.49,191.59 Q 793.19,195.53 789.25,196.23 L 732.13,206.30 Q 728.19,207.00 727.50,203.06 L 717.43,145.94 Q 716.73,142.00 720.67,141.30 Z" />
    <path class="key-bg" d="M 791.44,128.77 L 848.56,118.70 Q 852.50,118.01 853.19,121.95 L 863.26,179.06 Q 863.96,183.00 860.02,183.70 L 802.90,193.77 Q 798.96,194.47 798.27,190.53 L 788.20,133.41 Q 787.50,129.47 791.44,128.77 Z" />
    <path class="key-bg" d="M 862.21,116.31 L 919.33,106.24 Q 923.27,105.55 923.96,109.49 L 934.03,166.60 Q 934.73,170.54 930.79,171.24 L 873.67,181.31 Q 869.73,182.01 869.04,178.07 L 858.97,120.95 Q 858.27,117.01 862.21,116.31 Z" />
    <path class="key-bg" d="M 933.11,103.81 L 1024.69,87.66 Q 1028.63,86.97 1029.33,90.91 L 1039.40,148.03 Q 1040.09,151.97 1036.15,152.66 L 944.57,168.81 Q 940.63,169.50 939.93,165.56 L 929.86,108.45 Q 929.17,104.51 933.11,103.81 Z" />
    <path class="key-bg" d="M 50.18,158.43 L 141.76,174.58 Q 145.70,175.28 145.01,179.22 L 134.94,236.33 Q 134.24,240.27 130.30,239.58 L 38.72,223.43 Q 34.78,222.74 35.47,218.80 L 45.54,161.68 Q 46.24,157.74 50.18,158.43 Z" />
    <path class="key-bg" d="M 155.61,177.01 L 212.73,187.08 Q 216.67,187.78 215.97,191.72 L 205.90,248.84 Q 205.21,252.78 201.27,252.08 L 144.15,242.01 Q 140.21,241.31 140.91,237.37 L 150.98,180.26 Q 151.67,176.32 155.61,177.01 Z" />
    <path class="key-bg" d="M 226.38,189.47 L 283.50,199.54 Q 287.44,200.24 286.74,204.18 L 276.67,261.30 Q 275.98,265.24 272.04,264.54 L 214.92,254.47 Q 210.98,253.77 211.68,249.83 L 221.75,192.72 Q 222.44,188.78 226.38,189.47 Z" />
    <path class="key-bg" d="M 297.08,201.93 L 354.20,212.00 Q 358.14,212.70 357.44,216.64 L 347.37,273.76 Q 346.68,277.70 342.74,277.00 L 285.62,266.93 Q 281.68,266.23 282.38,262.29 L 292.45,205.18 Q 293.14,201.24 297.08,201.93 Z" />
    <path class="key-bg" d="M 367.85,214.46 L 424.97,224.53 Q 428.91,225.23 428.21,229.17 L 418.14,286.29 Q 417.45,290.23 413.51,289.53 L 356.39,279.46 Q 352.45,278.76 353.15,274.82 L 363.22,217.71 Q 363.91,213.77 367.85,214.46 Z" />
    <path class="key-bg" d="M 438.62,226.92 L 495.74,236.99 Q 499.68,237.69 498.98,241.63 L 488.91,298.75 Q 488.22,302.69 484.28,301.99 L 427.16,291.92 Q 423.22,291.22 423.92,287.28 L 433.99,230.17 Q 434.68,226.23 438.62,226.92 Z" />
    <path class="key-bg" d="M 591.66,236.99 L 648.78,226.92 Q 652.72,226.23 653.41,230.17 L 663.48,287.28 Q 664.18,291.22 660.24,291.92 L 603.12,301.99 Q 599.18,302.69 598.49,298.75 L 588.42,241.63 Q 587.72,237.69 591.66,236.99 Z" />
    <path class="key-bg" d="M 662.43,224.53 L 719.55,214.46 Q 723.49,213.77 724.18,217.71 L 734.25,274.82 Q 734.95,278.76 731.01,279.46 L 673.89,289.53 Q 669.95,290.23 669.26,286.29 L 659.19,229.17 Q 658.49,225.23 662.43,224.53 Z" />
    <path class="key-bg" d="M 733.20,212.00 L 790.32,201.93 Q 794.26,201.24 794.95,205.18 L 805.02,262.29 Q 805.72,266.23 801.78,266.93 L 744.66,277.00 Q 740.72,277.70 740.03,273.76 L 729.96,216.64 Q 729.26,212.70 733.20,212.00 Z" />
    <path class="key-bg" d="M 803.90,199.54 L 861.02,189.47 Q 864.96,188.78 865.65,192.72 L 875.72,249.83 Q 876.42,253.77 872.48,254.47 L 815.36,264.54 Q 811.42,265.24 810.73,261.30 L 800.66,204.18 Q 799.96,200.24 803.90,199.54 Z" />
    <path class="key-bg" d="M 874.67,187.08 L 931.79,177.01 Q 935.73,176.32 936.42,180.26 L 946.49,237.37 Q 947.19,241.31 943.25,242.01 L 886.13,252.08 Q 882.19,252.78 881.50,248.84 L 871.43,191.72 Q 870.73,187.78 874.67,187.08 Z" />
    <path class="key-bg" d="M 945.64,174.58 L 1037.22,158.43 Q 1041.16,157.74 1041.86,161.68 L 1051.93,218.80 Q 1052.62,222.74 1048.68,223.43 L 957.10,239.58 Q 953.16,240.27 952.46,236.33 L 942.39,179.22 Q 941.70,175.28 945.64,174.58 Z" />
    <path class="key-bg" d="M 37.72,229.20 L 129.30,245.35 Q 133.24,246.05 132.55,249.99 L 122.48,307.10 Q 121.78,311.04 117.84,310.35 L 26.26,294.20 Q 22.32,293.51 23.01,289.57 L 33.08,232.45 Q 33.78,228.51 37.72,229.20 Z" />
    <path class="key-bg" d="M 143.15,247.78 L 200.27,257.85 Q 204.21,258.55 203.51,262.49 L 193.44,319.61 Q 192.75,323.55 188.81,322.85 L 131.69,312.78 Q 127.75,312.08 128.45,308.14 L 138.52,251.03 Q 139.21,247.09 143.15,247.78 Z" />
    <path class="key-bg" d="M 213.85,260.24 L 270.97,270.31 Q 274.91,271.01 274.21,274.95 L 264.14,332.07 Q 263.45,336.01 259.51,335.31 L 202.39,325.24 Q 198.45,324.54 199.15,320.60 L 209.22,263.49 Q 209.91,259.55 213.85,260.24 Z" />
    <path class="key-bg" d="M 284.62,272.70 L 341.74,282.77 Q 345.68,283.47 344.98,287.41 L 334.91,344.53 Q 334.22,348.47 330.28,347.77 L 273.16,337.70 Q 269.22,337.00 269.92,333.06 L 279.99,275.95 Q 280.68,272.01 284.62,272.70 Z" />
    <path class="key-bg" d="M 355.39,285.16 L 412.51,295.23 Q 416.45,295.93 415.75,299.87 L 405.68,356.99 Q 404.99,360.93 401.05,360.23 L 343.93,350.16 Q 339.99,349.46 340.69,345.52 L 350.76,288.41 Q 351.45,284.47 355.39,285.16 Z" />
    <path class="key-bg" d="M 426.16,297.62 L 483.28,307.69 Q 487.22,308.39 486.52,312.33 L 476.45,369.45 Q 475.76,373.39 471.82,372.69 L 414.70,362.62 Q 410.76,361.92 411.46,357.98 L 421.53,300.87 Q 422.22,296.93 426.16,297.62 Z" />
    <path class="key-bg" d="M 604.12,307.69 L 661.24,297.62 Q 665.18,296.93 665.87,300.87 L 675.94,357.98 Q 676.64,361.92 672.70,362.62 L 615.58,372.69 Q 611.64,373.39 610.95,369.45 L 600.88,312.33 Q 600.18,308.39 604.12,307.69 Z" />
    <path class="key-bg" d="M 674.89,295.23 L 732.01,285.16 Q 735.95,284.47 736.64,288.41 L 746.71,345.52 Q 747.41,349.46 743.47,350.16 L 686.35,360.23 Q 682.41,360.93 681.72,356.99 L 671.65,299.87 Q 670.95,295.93 674.89,295.23 Z" />
    <path class="key-bg" d="M 745.66,282.77 L 802.78,272.70 Q 806.72,272.01 807.41,275.95 L 817.48,333.06 Q 818.18,337.00 814.24,337.70 L 757.12,347.77 Q 753.18,348.47 752.49,344.53 L 742.42,287.41 Q 741.72,283.47 745.66,282.77 Z" />
    <path class="key-bg" d="M 816.43,270.31 L 873.55,260.24 Q 877.49,259.55 878.18,263.49 L 888.25,320.60 Q 888.95,324.54 885.01,325.24 L 827.89,335.31 Q 823.95,336.01 823.26,332.07 L 813.19,274.95 Q 812.49,271.01 816.43,270.31 Z" />
    <path class="key-bg" d="M 887.13,257.85 L 944.25,247.78 Q 948.19,247.09 948.88,251.03 L 958.95,308.14 Q 959.65,312.08 955.71,312.78 L 898.59,322.85 Q 894.65,323.55 893.96,319.61 L 883.89,262.49 Q 883.19,258.55 887.13,257.85 Z" />
    <path class="key-bg" d="M 958.10,245.35 L 1049.68,229.20 Q 1053.62,228.51 1054.32,232.45 L 1064.39,289.57 Q 1065.08,293.51 1061.14,294.20 L 969.56,310.35 Q 965.62,311.04 964.92,307.10 L 954.85,249.99 Q 954.16,246.05 958.10,245.35 Z" />
    <path class="key-bg" d="M 61.66,306.34 L 153.24,322.49 Q 157.18,323.19 156.49,327.13 L 146.42,384.24 Q 145.72,388.18 141.78,387.49 L 50.20,371.34 Q 46.26,370.65 46.95,366.71 L 57.02,309.59 Q 57.72,305.65 61.66,306.34 Z" />
    <path class="key-bg" d="M 176.60,344.72 L 234.60,344.72 Q 238.60,344.72 238.60,348.72 L 238.60,406.72 Q 238.60,410.72 234.60,410.72 L 176.60,410.72 Q 172.60,410.72 172.60,406.72 L 172.60,348.72 Q 172.60,344.72 176.60,344.72 Z" />
    <path class="key-bg" d="M 259.91,346.90 L 317.03,356.97 Q 320.97,357.67 320.27,361.61 L 310.20,418.73 Q 309.51,422.67 305.57,421.97 L 248.45,411.90 Q 244.51,411.20 245.21,407.26 L 255.28,350.15 Q 255.97,346.21 259.91,346.90 Z" />
    <path class="key-bg" d="M 341.68,363.56 L 429.07,395.37 Q 432.83,396.74 431.46,400.50 L 411.63,455.00 Q 410.26,458.76 406.50,457.39 L 319.11,425.58 Q 315.35,424.21 316.72,420.46 L 336.55,365.95 Q 337.92,362.19 341.68,363.56 Z" />
    <path class="key-bg" d="M 442.88,396.87 L 500.88,396.87 Q 504.88,396.87 504.88,400.87 L 504.88,458.87 Q 504.88,462.87 500.88,462.87 L 442.88,462.87 Q 438.88,462.87 438.88,458.87 L 438.88,400.87 Q 438.88,396.87 442.88,396.87 Z" />
    <path class="key-bg" d="M 514.70,325.05 L 572.70,325.05 Q 576.70,325.05 576.70,329.05 L 576.70,387.05 Q 576.70,391.05 572.70,391.05 L 514.70,391.05 Q 510.70,391.05 510.70,387.05 L 510.70,329.05 Q 510.70,325.05 514.70,325.05 Z" />
    <path class="key-bg" d="M 514.70,396.87 L 572.70,396.87 Q 576.70,396.87 576.70,400.87 L 576.70,458.87 Q 576.70,462.87 572.70,462.87 L 514.70,462.87 Q 510.70,462.87 510.70,458.87 L 510.70,400.87 Q 510.70,396.87 514.70,396.87 Z" />
    <path class="key-bg" d="M 586.52,396.87 L 644.52,396.87 Q 648.52,396.87 648.52,400.87 L 648.52,458.87 Q 648.52,462.87 644.52,462.87 L 586.52,462.87 Q 582.52,462.87 582.52,458.87 L 582.52,400.87 Q 582.52,396.87 586.52,396.87 Z" />
    <path class="key-bg" d="M 658.40,395.37 L 745.79,363.56 Q 749.55,362.19 750.92,365.95 L 770.75,420.46 Q 772.12,424.21 768.36,425.58 L 680.97,457.39 Q 677.21,458.76 675.84,455.00 L 656.01,400.50 Q 654.64,396.74 658.40,395.37 Z" />
    <path class="key-bg" d="M 770.44,356.97 L 827.56,346.90 Q 831.50,346.21 832.19,350.15 L 842.26,407.26 Q 842.96,411.20 839.02,411.90 L 781.90,421.97 Q 777.96,422.67 777.27,418.73 L 767.20,361.61 Q 766.50,357.67 770.44,356.97 Z" />
    <path class="key-bg" d="M 852.80,344.72 L 910.80,344.72 Q 914.80,344.72 914.80,348.72 L 914.80,406.72 Q 914.80,410.72 910.80,410.72 L 852.80,410.72 Q 848.80,410.72 848.80,406.72 L 848.80,348.72 Q 848.80,344.72 852.80,344.72 Z" />
    <path class="key-bg" d="M 934.16,322.49 L 1025.74,306.34 Q 1029.68,305.65 1030.38,309.59 L 1040.45,366.71 Q 1041.14,370.65 1037.20,371.34 L 945.62,387.49 Q 941.68,388.18 940.98,384.24 L 930.91,327.13 Q 930.22,323.19 934.16,322.49 Z" />
  </g>
  <g>
    <text class="key-index" x="132.66" y="60.55" font-size="36" transform="rotate(10 132.66 60.55)">0</text>
    <text class="key-index" x="203.36" y="73.01" font-size="36" transform="rotate(10 203.36 73.01)">1</text>
    <text class="key-index" x="274.13" y="85.54" font-size="36" transform="rotate(10 274.13 85.54)">2</text>
    <text class="key-index" x="344.90" y="98.00" font-size="36" transform="rotate(10 344.90 98.00)">3</text>
    <text class="key-index" x="415.67" y="110.46" font-size="36" transform="rotate(10 415.67 110.46)">4</text>
    <text class="key-index" x="486.37" y="122.92" font-size="36" transform="rotate(10 486.37 122.92)">5</text>
    <text class="key-index" x="601.03" y="122.92" font-size="36" transform="rotate(-10 601.03 122.92)">6</text>
    <text class="key-index" x="671.80" y="110.46" font-size="36" transform="rotate(-10 671.80 110.46)">7</text>
    <text class="key-index" x="742.50" y="98.00" font-size="36" transform="rotate(-10 742.50 98.00)">8</text>
    <text class="key-index" x="813.27" y="85.54" font-size="36" transform="rotate(-10 813.27 85.54)">9</text>
    <text class="key-index" x="884.04" y="73.01" font-size="36" transform="rotate(-10 884.04 73.01)">10</text>
    <text class="key-index" x="954.74" y="60.55" font-size="36" transform="rotate(-10 954.74 60.55)">11</text>
    <text class="key-index" x="102.77" y="128.24" font-size="36" transform="rotate(10 102.77 128.24)">12</text>
    <text class="key-index" x="190.90" y="143.78" font-size="36" transform="rotate(10 190.90 143.78)">13</text>
    <text class="key-index" x="261.67" y="156.24" font-size="36" transform="rotate(10 261.67 156.24)">14</text>
    <text class="key-index" x="332.44" y="168.77" font-size="36" transform="rotate(10 332.44 168.77)">15</text>
    <text class="key-index" x="403.14" y="181.23" font-size="36" transform="rotate(10 403.14 181.23)">16</text>
    <text class="key-index" x="473.91" y="193.69" font-size="36" transform="rotate(10 473.91 193.69)">17</text>
    <text class="key-index" x="613.49" y="193.69" font-size="36" transform="rotate(-10 613.49 193.69)">18</text>
    <text class="key-index" x="684.26" y="181.23" font-size="36" transform="rotate(-10 684.26 181.23)">19</text>
    <text class="key-index" x="754.96" y="168.77" font-size="36" transform="rotate(-10 754.96 168.77)">20</text>
    <text class="key-index" x="825.73" y="156.24" font-size="36" transform="rotate(-10 825.73 156.24)">21</text>
    <text class="key-index" x="896.50" y="143.78" font-size="36" transform="rotate(-10 896.50 143.78)">22</text>
    <text class="key-index" x="984.63" y="128.24" font-size="36" transform="rotate(-10 984.63 128.24)">23</text>
    <text class="key-index" x="90.24" y="199.01" font-size="36" transform="rotate(10 90.24 199.01)">24</text>
    <text class="key-index" x="178.44" y="214.55" font-size="36" transform="rotate(10 178.44 214.55)">25</text>
    <text class="key-index" x="249.21" y="227.01" font-size="36" transform="rotate(10 249.21 227.01)">26</text>
    <text class="key-index" x="319.91" y="239.47" font-size="36" transform="rotate(10 319.91 239.47)">27</text>
    <text class="key-index" x="390.68" y="252.00" font-size="36" transform="rotate(10 390.68 252.00)">28</text>
    <text class="key-index" x="461.45" y="264.46" font-size="36" transform="rotate(10 461.45 264.46)">29</text>
    <text class="key-index" x="625.95" y="264.46" font-size="36" transform="rotate(-10 625.95 264.46)">30</text>
    <text class="key-index" x="696.72" y="252.00" font-size="36" transform="rotate(-10 696.72 252.00)">31</text>
    <text class="key-index" x="767.49" y="239.47" font-size="36" transform="rotate(-10 767.49 239.47)">32</text>
    <text class="key-index" x="838.19" y="227.01" font-size="36" transform="rotate(-10 838.19 227.01)">33</text>
    <text class="key-index" x="908.96" y="214.55" font-size="36" transform="rotate(-10 908.96 214.55)">34</text>
    <text class="key-index" x="997.16" y="199.01" font-size="36" transform="rotate(-10 997.16 199.01)">35</text>
    <text class="key-index" x="77.78" y="269.78" font-size="36" transform="rotate(10 77.78 269.78)">36</text>
    <text class="key-index" x="165.98" y="285.32" font-size="36" transform="rotate(10 165.98 285.32)">37</text>
    <text class="key-index" x="236.68" y="297.78" font-size="36" transform="rotate(10 236.68 297.78)">38</text>
    <text class="key-index" x="307.45" y="310.24" font-size="36" transform="rotate(10 307.45 310.24)">39</text>
    <text class="key-index" x="378.22" y="322.70" font-size="36" transform="rotate(10 378.22 322.70)">40</text>
    <text class="key-index" x="448.99" y="335.16" font-size="36" transform="rotate(10 448.99 335.16)">41</text>
    <text class="key-index" x="638.41" y="335.16" font-size="36" transform="rotate(-10 638.41 335.16)">42</text>
    <text class="key-index" x="709.18" y="322.70" font-size="36" transform="rotate(-10 709.18 322.70)">43</text>
    <text class="key-index" x="779.95" y="310.24" font-size="36" transform="rotate(-10 779.95 310.24)">44</text>
    <text class="key-index" x="850.72" y="297.78" font-size="36" transform="rotate(-10 850.72 297.78)">45</text>
    <text class="key-index" x="921.42" y="285.32" font-size="36" transform="rotate(-10 921.42 285.32)">46</text>
    <text class="key-index" x="1009.62" y="269.78" font-size="36" transform="rotate(-10 1009.62 269.78)">47</text>
    <text class="key-index" x="101.72" y="346.92" font-size="36" transform="rotate(10 101.72 346.92)">48</text>
    <text class="key-index" x="205.60" y="377.72" font-size="36">49</text>
    <text class="key-index" x="282.74" y="384.44" font-size="36" transform="rotate(10 282.74 384.44)">50</text>
    <text class="key-index" x="374.09" y="410.48" font-size="36" transform="rotate(20 374.09 410.48)">51</text>
    <text class="key-index" x="471.88" y="429.87" font-size="36">52</text>
    <text class="key-index" x="543.70" y="358.05" font-size="36">53</text>
    <text class="key-index" x="543.70" y="429.87" font-size="36">54</text>
    <text class="key-index" x="615.52" y="429.87" font-size="36">55</text>
    <text class="key-index" x="713.38" y="410.48" font-size="36" transform="rotate(-20 713.38 410.48)">56</text>
    <text class="key-index" x="804.73" y="384.44" font-size="36" transform="rotate(-10 804.73 384.44)">57</text>
    <text class="key-index" x="881.80" y="377.72" font-size="36">58</text>
    <text class="key-index" x="985.68" y="346.92" font-size="36" transform="rotate(-10 985.68 346.92)">59</text>
  </g>
</svg>
